  <svg
                class="scale-[.7] sm:scale-[1]"
                width="120"
                height="29"
                aria-hidden="true"
                viewBox="0 0 120 29"
                fill="none"
                xmlns="http://www.w3.org/2000/svg"
              >
                <path
                  d="M15.1597 22.0844C14.5946 22.0844 14.1278 21.9582 13.7101 21.7058C13.2924 21.4534 12.9975 21.0749 12.8256 20.5701L13.317 18.0461C13.317 19.1314 13.1695 20.2167 12.8747 21.302C12.5799 22.3873 12.1622 23.3716 11.6216 24.255C11.0811 25.1384 10.4177 25.8451 9.65602 26.3751C8.82064 27.0061 7.78869 27.5614 6.60933 28.0157C5.4054 28.47 4.22605 28.7476 3.04669 28.8738C2.53072 28.4952 2.06389 28.0662 1.6462 27.5866C1.22851 27.1071 0.687961 26.2489 0 25.0627C2.16216 24.7598 4.07862 24.4064 5.74939 23.9521C7.42015 23.4978 8.7715 23.0183 9.80344 22.463C10.8354 21.9078 11.4742 21.3777 11.7445 20.8477C11.6708 20.3682 11.3759 19.51 10.9091 18.2481C10.4177 16.9861 9.90172 15.7241 9.33661 14.4622L12.3342 12.1401C12.7273 13.5788 13.0713 14.6136 13.3907 15.2446C13.7101 15.8755 14.0541 16.3046 14.4472 16.557C14.8403 16.7842 15.3808 16.9104 16.0688 16.9104L15.2088 22.1854L15.1597 22.0844ZM26.1425 22.0844C24.57 22.0844 23.2924 21.9835 22.285 21.7816C21.2776 21.5797 20.5897 21.2768 20.1966 20.8477L18.6978 20.2924C18.1327 20.1158 17.6904 19.7372 17.4201 19.1819C17.1253 18.6266 17.0025 17.9704 17.0025 17.188C17.0025 16.0775 17.2482 14.8912 17.715 13.6292C18.2064 12.3925 18.7961 11.3325 19.5332 10.4743C20.2703 9.61619 20.9828 9.18712 21.6708 9.18712C22.3587 9.18712 22.973 9.38903 23.5872 9.8181C24.2015 10.2219 24.6929 10.7772 25.0368 11.4839C25.4054 12.1906 25.5774 12.9225 25.5774 13.705C25.5774 14.4117 25.4054 15.2193 25.0614 16.1027C24.7174 16.9861 24.2752 17.819 23.7592 18.5762C23.2187 19.3333 22.6781 19.8886 22.113 20.2672L20.5651 20.8225C20.0737 21.2515 19.3857 21.5796 18.5258 21.7563C17.6658 21.933 16.5111 22.034 15.1106 22.034C15.0123 22.034 14.9386 21.8825 14.8649 21.5796C14.7912 21.2768 14.7666 20.8982 14.7666 20.4439C14.7666 19.6867 14.8403 19.0305 14.9631 18.4752C15.086 17.9199 15.2334 17.4909 15.43 17.2132C15.602 16.9356 15.7985 16.7842 16.0197 16.7842C17.4201 16.7842 18.3784 16.7084 18.8943 16.5822L19.9509 17.0113C20.5651 16.9608 21.1548 16.8599 21.7445 16.6832C22.3341 16.5318 22.8256 16.3299 23.2678 16.1027C23.7101 15.8756 24.0295 15.6484 24.2015 15.4212C24.1032 15.1184 23.8821 14.7903 23.5381 14.4622C23.1941 14.134 22.7764 13.8816 22.3096 13.6797C21.8428 13.4778 21.3514 13.3769 20.86 13.3769C20.4668 13.3769 20.0983 13.4778 19.7789 13.6545C19.4595 13.8312 19.1646 14.0836 18.9435 14.3864C18.6978 14.6893 18.5258 15.0174 18.3784 15.3455C18.4767 15.7746 18.8206 16.128 19.4103 16.4561C19.9754 16.7842 20.7125 16.9356 21.5971 16.9861L22.9238 16.6327C23.1695 16.7085 23.6855 16.7337 24.4226 16.7589C25.1843 16.7589 26.0688 16.7589 27.1007 16.7589L26.1916 22.034L26.1425 22.0844ZM21.9656 7.79897C21.4742 7.52133 20.9337 7.16798 20.344 6.71367C19.7543 6.25937 19.312 5.85553 19.0418 5.52742L20.9582 2.97824C21.2039 3.30635 21.6462 3.71019 22.2359 4.1645C22.8255 4.64404 23.3907 4.99739 23.8821 5.24979L21.9656 7.79897ZM26.1671 22.0844C26.1671 22.0844 25.9951 21.933 25.9214 21.6301C25.8477 21.3272 25.8231 20.9487 25.8231 20.4944C25.8231 19.7372 25.8968 19.081 26.0197 18.5257C26.1425 17.9704 26.2899 17.5414 26.4865 17.2637C26.6585 16.9861 26.855 16.8346 27.0762 16.8346H30.6388L29.7543 22.1097H26.1916L26.1671 22.0844ZM29.7297 22.0844C29.7297 22.0844 29.5577 21.933 29.484 21.6301C29.4103 21.3272 29.3857 20.9487 29.3857 20.4944C29.3857 19.7372 29.4595 19.081 29.5823 18.5257C29.7052 17.9704 29.8526 17.5414 30.0491 17.2637C30.2211 16.9861 30.4177 16.8346 30.6388 16.8346H34.2015L33.317 22.1097H29.7543L29.7297 22.0844ZM33.2924 22.0844C33.2924 22.0844 33.1204 21.933 33.0467 21.6301C32.973 21.3272 32.9484 20.9487 32.9484 20.4944C32.9484 19.7372 33.0221 19.081 33.145 18.5257C33.2678 17.9704 33.4152 17.5414 33.6118 17.2637C33.7838 16.9861 33.9803 16.8346 34.2015 16.8346H37.7641L36.8796 22.1097H33.317L33.2924 22.0844ZM36.855 22.0844C36.855 22.0844 36.683 21.933 36.6093 21.6301C36.5356 21.3272 36.5111 20.9487 36.5111 20.4944C36.5111 19.7372 36.5848 19.081 36.7076 18.5257C36.8305 17.9704 36.9779 17.5414 37.1744 17.2637C37.3464 16.9861 37.543 16.8346 37.7641 16.8346H41.3268L40.4423 22.1097H36.8796L36.855 22.0844ZM40.4177 22.0844C40.4177 22.0844 40.2457 21.933 40.172 21.6301C40.0983 21.3272 40.0737 20.9487 40.0737 20.4944C40.0737 19.7372 40.1474 19.081 40.2703 18.5257C40.3931 17.9704 40.5405 17.5414 40.7371 17.2637C40.9091 16.9861 41.1056 16.8346 41.3268 16.8346H44.8894L44.0049 22.1097H40.4423L40.4177 22.0844ZM43.9803 22.0844C43.9803 22.0844 43.8083 21.933 43.7346 21.6301C43.6609 21.3272 43.6364 20.9487 43.6364 20.4944C43.6364 19.7372 43.7101 19.081 43.8329 18.5257C43.9558 17.9704 44.1032 17.5414 44.2997 17.2637C44.4717 16.9861 44.6683 16.8346 44.8894 16.8346H48.4521L47.5676 22.1097H44.0049L43.9803 22.0844ZM47.543 22.0844C47.543 22.0844 47.371 21.933 47.2973 21.6301C47.2236 21.3272 47.199 20.9487 47.199 20.4944C47.199 19.7372 47.2727 19.081 47.3956 18.5257C47.5184 17.9704 47.6658 17.5414 47.8624 17.2637C48.0344 16.9861 48.231 16.8346 48.4521 16.8346H52.0147L51.1302 22.1097H47.5676L47.543 22.0844ZM51.1056 22.0844C51.1056 22.0844 50.9337 21.933 50.8599 21.6301C50.7862 21.3272 50.7617 20.9487 50.7617 20.4944C50.7617 19.7372 50.8354 19.081 50.9582 18.5257C51.0811 17.9704 51.2285 17.5414 51.4251 17.2637C51.597 16.9861 51.7936 16.8346 52.0147 16.8346H55.5774L54.6929 22.1097H51.1302L51.1056 22.0844ZM71.5479 10.4743C71.6708 11.181 71.7936 11.913 71.8919 12.6702C71.9902 13.4273 72.0393 14.0583 72.0393 14.5883C72.0393 15.8503 71.8428 17.0366 71.4742 18.1723C71.1057 19.3081 70.6143 20.2419 70.0491 20.9739C69.484 21.7058 68.9189 22.0592 68.3784 22.0592C67.715 22.0592 67.1253 21.933 66.5848 21.6806C66.0442 21.4282 65.6265 21.0748 65.3317 20.6205C65.0123 20.1662 64.8403 19.6615 64.7912 19.1314H64.9631C64.6683 20.141 64.226 20.8729 63.6609 21.3525C63.0958 21.832 62.4324 22.0592 61.6707 22.0592C60.8108 22.0592 60.1474 21.7815 59.656 21.2515C59.1646 20.7215 58.8943 19.9391 58.8698 18.9295L59.0418 18.879C58.7715 19.6615 58.4521 20.2924 58.0344 20.7467C57.6413 21.2011 57.1499 21.5544 56.6093 21.7563C56.0442 21.9582 55.4054 22.0592 54.6437 22.0592C54.5455 22.0592 54.4717 21.9077 54.398 21.6049C54.3243 21.302 54.2997 20.9234 54.2997 20.4691C54.2997 19.7119 54.3735 19.0557 54.4963 18.5004C54.6192 17.9452 54.7666 17.5161 54.9631 17.2385C55.1351 16.9608 55.3317 16.8094 55.5528 16.8094C56.683 16.8094 57.543 16.6075 58.1081 16.2037C58.6732 15.7998 59.0418 15.1941 59.1646 14.3864L59.312 13.0992L60.5405 13.0487V14.3107C60.5405 15.1184 60.7125 15.7241 61.0319 16.1532C61.3759 16.5823 61.8673 16.8094 62.5553 16.8094C63.3169 16.8094 63.8821 16.6327 64.2752 16.2794C64.6683 15.926 64.914 15.3708 65.0368 14.6388L65.1843 13.503L66.4128 13.4526V14.4117C66.4128 15.2446 66.6585 15.8503 67.1744 16.2289C67.6904 16.6075 68.4521 16.8094 69.484 16.8094C69.6806 16.8094 69.8771 16.8094 70.0246 16.7589C70.172 16.7084 70.2703 16.6327 70.344 16.5318C70.2948 16.2289 70.0983 15.6231 69.7543 14.765C69.4103 13.9069 69.1155 13.1245 68.8452 12.443L71.5479 10.4996V10.4743ZM92.1867 10.7015C92.4816 12.0896 92.6781 13.3011 92.7764 14.2855C92.8747 15.2698 92.9484 16.2289 92.9484 17.188C92.9484 18.3238 92.801 19.4848 92.5307 20.6458C92.2604 21.8068 91.8919 22.8164 91.4496 23.6997C91.0074 24.5831 90.5651 25.1889 90.1228 25.517C89.6069 25.8956 88.9681 26.2742 88.2064 26.6023C87.4447 26.9304 86.5848 27.1828 85.6757 27.3342C84.7666 27.5109 83.8329 27.5866 82.8747 27.5866C80.8108 27.5866 79.2629 27.1071 78.2064 26.1227C77.1499 25.1384 76.6339 23.725 76.6339 21.8573C76.6339 19.8381 77.2236 17.1628 78.3784 13.8312L79.5823 14.1845C79.2875 15.295 79.0663 16.2541 78.9189 17.0618C78.7961 17.8442 78.7224 18.5257 78.7224 19.0809C78.7224 20.0905 79.14 20.8729 79.9509 21.4534C80.7617 22.0339 82.0393 22.3116 83.7592 22.3116C84.6683 22.3116 85.6265 22.2359 86.6339 22.0844C87.6413 21.933 88.5258 21.7311 89.3366 21.4534C90.1474 21.1758 90.7371 20.8982 91.1056 20.5701C91.2039 20.4439 91.2531 20.2672 91.2531 20.0905C91.2531 19.5605 91.0319 18.6266 90.6142 17.3394C90.1965 16.027 89.656 14.6388 89.0172 13.1497L92.1867 10.7015ZM85.0123 18.7276C84.5209 18.45 83.9803 18.0966 83.3907 17.6423C82.801 17.188 82.3587 16.7842 82.0884 16.4561L84.0049 13.9069C84.2506 14.235 84.6929 14.6388 85.2825 15.0931C85.8722 15.5727 86.4373 15.926 86.9287 16.1784L85.0123 18.7276ZM96.7813 22.4125L95.2088 4.36642L99.0909 2.62489L98.5258 21.8825L96.7567 22.3873L96.7813 22.4125ZM106.167 10.4239C107.101 10.4239 107.936 10.7772 108.673 11.4839C109.41 12.1906 110 13.1749 110.442 14.4369C110.86 15.6989 111.081 17.1375 111.081 18.7781C111.081 20.6458 110.811 22.2611 110.27 23.6493C109.73 25.0122 108.919 26.0722 107.862 26.8042C107.273 27.1828 106.56 27.5109 105.749 27.839C104.914 28.1419 104.029 28.4195 103.071 28.6214C102.113 28.8233 101.13 28.9748 100.147 29C99.8034 28.8233 99.484 28.5709 99.2137 28.2428C98.9435 27.9147 98.6486 27.4604 98.3292 26.9051C98.0098 26.3499 97.6413 25.6432 97.2236 24.785C99.6314 24.6588 101.695 24.4317 103.464 24.1541C105.209 23.8512 106.609 23.5231 107.641 23.1192C108.673 22.7407 109.361 22.3116 109.705 21.8825C109.631 20.2167 109.435 18.8538 109.091 17.7685C108.747 16.6832 108.256 15.8503 107.666 15.295C107.052 14.7398 106.29 14.4622 105.381 14.4622C105.012 14.4622 104.619 14.5631 104.275 14.7398C103.907 14.9165 103.612 15.1436 103.415 15.396C103.194 15.6484 103.096 15.926 103.096 16.1784C103.096 16.4813 103.292 16.7337 103.661 16.8851C104.029 17.0366 104.595 17.1375 105.381 17.1375C106.167 17.1375 106.88 17.087 107.568 16.9608C108.256 16.8599 108.894 16.6832 109.459 16.4813L110.025 20.5953C109.337 21.0749 108.526 21.4282 107.641 21.6806C106.757 21.933 105.848 22.0592 104.939 22.0592C103.882 22.0592 103.071 21.7563 102.482 21.1253C101.892 20.5196 101.597 19.6615 101.597 18.6014C101.597 17.5414 101.794 16.3803 102.187 15.0679C102.58 13.7807 103.12 12.6701 103.833 11.7868C104.545 10.9034 105.332 10.4491 106.216 10.4491L106.167 10.4239ZM119.656 2.80157C119.066 3.15492 118.354 3.43256 117.543 3.63447C116.732 3.83639 115.971 3.93733 115.258 3.93733C114.57 3.93733 113.956 3.86162 113.366 3.71019C112.776 3.55875 112.26 3.35684 111.794 3.10445L111.056 5.17407L109.926 4.21497L111.155 1.48913C111.4 0.959105 111.622 0.60574 111.867 0.429064C112.088 0.252389 112.359 0.15143 112.654 0.15143C112.752 0.15143 112.875 0.151435 113.022 0.176675C113.145 0.176675 113.292 0.227156 113.464 0.277634C113.833 0.403831 114.226 0.504781 114.619 0.605739C115.012 0.681457 115.528 0.731943 116.192 0.731943C116.781 0.731943 117.42 0.656221 118.108 0.530024C118.796 0.403827 119.435 0.227154 120 0L119.656 2.77632V2.80157ZM114.939 22.4125L113.366 7.11749L117.248 5.35075L116.683 21.8825L114.914 22.3873L114.939 22.4125Z"
                  fill="black"
                />
              </svg>